                                                                                        S      1
     111       2       3       4       5       6       7       8       9      10      11      12
12345678901234567890123456789012345678901234567890123456789012345678901234567890123456789012345678901234567890123456789012
1       IGES FILE FOR MECHANICAL ASSEMBLY PART                                            S      1
2       THIS IS AN IGES FILE CREATED FROM ENGINEERING DRAWING                             S      2
3       BASE PLATE AND HOUSING ASSEMBLY                                                   S      3
4                                                                                        G      1
5       110HZ 15H         15H         15H         11H         15H                         G      2
6       15H         15H         15H         15H         15H         15H                   G      3
7       15H         15H         15H         15H                                           G      4
8                                                                                        G      5
     102       1       0       1       0       0       0       00000000D      1
     102       0       0       2       0                              0D      2
     110       1       0       1       0       0       0       00000000D      3
     110       0       0       2       0                              0D      4
     116       1       0       1       0       0       0       00000000D      5
     116       0       0       2       0                              0D      6
     102       2       0       1       0       0       0       00000000D      7
     102       0       0       2       0                              0D      8
100 BASE PLATE                                                              1H ,
0.0, 0.0, 0.0, 80.0, 100.0, 5.0;                                           2H ;
110 HOUSING SECTION                                                         3H ,
40.0, 20.0, 50.0, 60.0, 70.0;                                              4H ;
116 SUPPORT COLUMN                                                          5H ,
10.0, 10.0, 0.0, 10.0, 10.0, 200.0, 20.0, 20.0;                           6H ;
102 BOLT HOLE FEATURES                                                      7H ,
5.0, 0.0, 0.0, 0.0, 0.0, 1.0;                                              8H ;
S      1G      8D      8P      3                                                        T      1
